HIERARCHY
ROOT Hips
{
  OFFSET -35.4901 99.2528 17.4586
  CHANNELS 6 Xposition Yposition Zposition Zrotation Xrotation Yrotation
  JOINT LeftUpLeg
  {
    OFFSET 8.64259 1.95398 -2.38835
    CHANNELS 3 Zrotation Xrotation Yrotation
    JOINT LeftLeg
    {
      OFFSET 43.7702 0 0
      CHANNELS 3 Zrotation Xrotation Yrotation
      JOINT LeftFoot
      {
        OFFSET 40.6238 0 0
        CHANNELS 3 Zrotation Xrotation Yrotation
        JOINT LeftToeBase
        {
          OFFSET 12.7242 0 0
          CHANNELS 3 Zrotation Xrotation Yrotation
          End Site
          {
            OFFSET 0 0 0
          }
        }
      }
    }
  }
  JOINT RightUpLeg
  {
    OFFSET -8.2249 1.95398 -2.59336
    CHANNELS 3 Zrotation Xrotation Yrotation
    JOINT RightLeg
    {
      OFFSET 43.5653 0 0
      CHANNELS 3 Zrotation Xrotation Yrotation
      JOINT RightFoot
      {
        OFFSET 40.6238 0 0
        CHANNELS 3 Zrotation Xrotation Yrotation
        JOINT RightToeBase
        {
          OFFSET 12.7242 0 0
          CHANNELS 3 Zrotation Xrotation Yrotation
          End Site
          {
            OFFSET 0 0 0
          }
        }
      }
    }
  }
  JOINT Spine
  {
    OFFSET 0.165834 0.87714 6.61349
    CHANNELS 3 Zrotation Xrotation Yrotation
    JOINT Spine1
    {
      OFFSET 7.38963 1.71661e-005 0
      CHANNELS 3 Zrotation Xrotation Yrotation
      JOINT Spine2
      {
        OFFSET 11.9445 1.14441e-005 0
        CHANNELS 3 Zrotation Xrotation Yrotation
        JOINT Spine3
        {
          OFFSET 14.7254 4.19617e-005 0
          CHANNELS 3 Zrotation Xrotation Yrotation
          JOINT Spine4
          {
            OFFSET 10.9679 0 0
            CHANNELS 3 Zrotation Xrotation Yrotation
            JOINT RightShoulder
            {
              OFFSET 2.46616 -1.6653 3.69651
              CHANNELS 3 Zrotation Xrotation Yrotation
              JOINT RightArm
              {
                OFFSET 13.0012 0 0
                CHANNELS 3 Zrotation Xrotation Yrotation
                JOINT RightForeArm
                {
                  OFFSET 28.7848 1.52588e-005 0
                  CHANNELS 3 Zrotation Xrotation Yrotation
                  JOINT RightHand
                  {
                    OFFSET 26.5688 1.52588e-005 0
                    CHANNELS 3 Zrotation Xrotation Yrotation
                    End Site
                    {
                      OFFSET 0 0 0
                    }
                  }
                }
              }
            }
            JOINT LeftShoulder
            {
              OFFSET 2.38034 -1.29275 -3.7523
              CHANNELS 3 Zrotation Xrotation Yrotation
              JOINT LeftArm
              {
                OFFSET 16.3182 6.10351e-005 0
                CHANNELS 3 Zrotation Xrotation Yrotation
                JOINT LeftForeArm
                {
                  OFFSET 27.0901 0 0
                  CHANNELS 3 Zrotation Xrotation Yrotation
                  JOINT LeftHand
                  {
                    OFFSET 24.5451 1.52588e-005 0
                    CHANNELS 3 Zrotation Xrotation Yrotation
                    End Site
                    {
                      OFFSET 0 0 0
                    }
                  }
                }
              }
            }
            JOINT Neck
            {
              OFFSET 5.0226 -0.0266342 0
              CHANNELS 3 Zrotation Xrotation Yrotation
              JOINT Head
              {
                OFFSET 6.69364 2.86102e-005 0
                CHANNELS 3 Zrotation Xrotation Yrotation
                End Site
                {
                  OFFSET 0 0 0
                }
              }
            }
          }
        }
      }
    }
  }
}
MOTION
Frames:	6
Frame Time:	0.0416667
30.0027 100.751 -327.188 162.741 -82.3773 162.163 -176.696 -3.73496 91.1388 -10.4375 15.357 1.02766 63.9261 2.38219 4.62862 27.3137 -0.139564 0.363133 169.571 -4.807 86.314 -10.0742 -12.9264 -1.45262 64.4751 -2.51252 0.950891 24.2993 1.09952 -2.03701 0.0459155 8.11986 -90.004 10.6342 0.0896459 -0.0160937 -1.03675 0.088861 -0.0200203 -23.5719 0.0903452 0.0115967 -3.55927 0.0903421 0.0115923 87.7267 -33.6131 -109.703 37.167 -12.1245 -9.58974 -5.94233 -29.3013 -29.7176 -19.1022 -1.09687 -1.91141 -84.8668 -52.4922 86.7517 -26.2036 0.0790692 -22.8539 127.817 54.7981 -124.294 12.3615 -3.41191 -29.6493 6.16545 -1.63755 -4.9778 -5.04306 -0.7112 2.32492 
29.9027 100.759 -327.174 160.528 -82.5512 160.204 -176.429 -3.23259 91.6069 -10.6783 14.6146 0.787199 64.1393 2.44284 3.49997 27.6583 0.124871 -0.103927 169.822 -4.90456 86.7424 -9.56959 -12.7164 -1.42921 64.6737 -2.66983 -0.0487571 22.5275 0.161617 0.418875 0.029767 8.08598 -90.0398 10.702 0.0409664 -0.0827642 -0.968976 0.0372842 -0.0844978 -23.5041 0.0639549 -0.0666231 -3.49147 0.0639447 -0.0666363 87.4569 -33.425 -110.282 37.3437 -11.9546 -9.09936 -6.0072 -29.1289 -29.8051 -18.7113 -1.23579 -0.68469 -85.276 -52.6221 86.1682 -27.5286 -1.62774 -21.3825 128.085 52.5594 -123.421 11.4414 -3.28089 -30.2754 5.90156 -1.72552 -5.11116 -4.9703 -0.786287 2.47152 
30.0238 100.77 -327.152 164.594 -82.4124 163.951 -176.732 -3.87665 91.0606 -10.118 13.1962 0.811813 64.006 2.38062 3.05124 27.5018 0.244967 -0.287818 169.426 -4.90892 86.1806 -9.95343 -13.4027 -1.41805 65.4238 -3.02281 -0.667012 20.6535 -0.649692 2.45115 0.0615343 8.12751 -90.0084 10.6188 0.118717 -0.0275259 -1.05211 0.11739 -0.0327292 -23.5873 0.121502 0.009426 -3.57466 0.121499 0.0094155 87.4378 -33.2913 -110.373 37.232 -12.1148 -9.2383 -5.32642 -29.0829 -29.177 -19.3625 -1.07818 -2.05828 -85.2289 -52.8447 86.2654 -25.6095 0.418861 -22.971 125.839 56.8975 -122.865 12.0364 -3.20213 -28.6215 5.70164 -1.81442 -5.17382 -4.6559 -0.865875 2.54836 
29.8962 100.771 -327.164 164.311 -82.9514 164.089 -176.433 -3.05131 91.7084 -10.6521 13.3919 0.685272 64.2332 2.41579 3.12751 27.3254 0.446896 -0.602406 169.991 -4.7575 86.9205 -9.39598 -12.8359 -1.51275 65.0368 -2.8869 -0.510005 20.9351 -0.747473 2.63846 0.0659243 8.08138 -90.0523 10.7112 0.107237 -0.11366 -0.959748 0.102126 -0.118274 -23.4949 0.136433 -0.0761799 -3.48227 0.136435 -0.0761815 87.5287 -33.1613 -110.256 37.3199 -12.2786 -9.35151 -5.04808 -29.2324 -28.7994 -19.3815 -1.0951 -1.94364 -85.1406 -52.8169 86.3911 -25.5516 0.626742 -21.4047 120.463 56.5478 -117.582 10.351 -2.77872 -28.134 5.94268 -1.77808 -5.06374 -4.9202 -0.836025 2.16708 
29.9109 100.752 -327.199 164.909 -83.2121 164.76 -176.412 -2.84623 91.7162 -10.5602 13.2601 0.618206 64.2387 2.41488 3.18408 27.5344 0.348905 -0.462166 170.1 -4.45651 87.0221 -9.44018 -12.8826 -1.53006 65.0926 -2.92756 -0.458604 20.2372 -0.458911 2.0553 0.074362 8.05988 -90.0472 10.7542 0.12636 -0.105476 -0.91678 0.121595 -0.110952 -23.452 0.152217 -0.0626298 -3.43933 0.15222 -0.0626283 87.4376 -33.4685 -110.3 37.0007 -12.3313 -9.42306 -4.35483 -29.2085 -28.1119 -19.6294 -1.0228 -2.50114 -85.3327 -52.5566 86.0767 -25.7528 0.784201 -21.8135 117.677 59.4164 -115.233 9.88933 -2.55947 -27.0583 6.14357 -1.68987 -5.40706 -5.15692 -0.68613 2.4302 
30.0257 100.76 -327.149 166.549 -83.0015 166.048 -176.845 -2.924 91.1611 -11.025 12.1532 0.886971 64.3614 2.39019 2.42549 26.9499 0.677213 -0.938807 169.709 -4.4231 86.4599 -9.8717 -13.4137 -1.51187 65.2769 -2.96465 -0.50412 20.6404 -0.47618 2.0613 0.0786265 8.08199 -89.9793 10.7099 0.166125 0.0258135 -0.961091 0.167102 0.0184659 -23.4963 0.150687 0.0745464 -3.48366 0.150687 0.07454 87.4455 -33.8307 -110.137 36.8415 -12.6236 -9.44194 -3.57223 -29.15 -27.1785 -20.3313 -1.04213 -2.46343 -85.4141 -51.9104 85.8723 -26.0688 1.28981 -22.0366 111.878 62.7143 -110.002 8.84297 -2.17349 -25.361 6.10136 -1.72503 -6.07692 -5.06325 -0.60891 3.06798 
